/* XPM */
static const char * bannerview_xpm[] = {
"16 16 9 1",
" 	c None",
".	c #6D6D6D",
"+	c #FFFFFF",
"@	c #DCDCDC",
"#	c #FF0000",
"$	c #8C8C8C",
"%	c #000000",
"&	c #7C7C7C",
"*	c #00FF00",
"...........     ",
".+++++++++@.    ",
".++#++++++$@.   ",
".+###+++++$+@.  ",
".++#++++++$++@. ",
".++%+++++++&&&&.",
".++%++++++**+++.",
".++%+++++**++++.",
".++%+++***+++++.",
".++%++**+++++++.",
".++%+**++++++++.",
".++#++++++++#++.",
".+###%%%%%%###+.",
".++#++++++++#++.",
".++++++++++++++.",
"................"};
