/* XPM */
static const char * colorchooser_saturation_xpm[] = {
"210 1 203 2",
"  	c None",
". 	c #FFFFFF",
"+ 	c #FFFDFD",
"@ 	c #FFFCFC",
"# 	c #FFFBFB",
"$ 	c #FFFAFA",
"% 	c #FFF8F8",
"& 	c #FFF7F7",
"* 	c #FFF6F6",
"= 	c #FFF5F5",
"- 	c #FFF4F4",
"; 	c #FFF2F2",
"> 	c #FFF1F1",
", 	c #FFF0F0",
"' 	c #FFEFEF",
") 	c #FFEEEE",
"! 	c #FFECEC",
"~ 	c #FFEBEB",
"{ 	c #FFEAEA",
"] 	c #FFE9E9",
"^ 	c #FFE7E7",
"/ 	c #FFE6E6",
"( 	c #FFE5E5",
"_ 	c #FFE4E4",
": 	c #FFE3E3",
"< 	c #FFE1E1",
"[ 	c #FFE0E0",
"} 	c #FFDFDF",
"| 	c #FFDEDE",
"1 	c #FFDDDD",
"2 	c #FFDBDB",
"3 	c #FFDADA",
"4 	c #FFD9D9",
"5 	c #FFD8D8",
"6 	c #FFD7D7",
"7 	c #FFD5D5",
"8 	c #FFD4D4",
"9 	c #FFD3D3",
"0 	c #FFD2D2",
"a 	c #FFD0D0",
"b 	c #FFCFCF",
"c 	c #FFCECE",
"d 	c #FFCDCD",
"e 	c #FFCCCC",
"f 	c #FFCACA",
"g 	c #FFC9C9",
"h 	c #FFC8C8",
"i 	c #FFC7C7",
"j 	c #FFC6C6",
"k 	c #FFC4C4",
"l 	c #FFC3C3",
"m 	c #FFC2C2",
"n 	c #FFC1C1",
"o 	c #FFBFBF",
"p 	c #FFBEBE",
"q 	c #FFBDBD",
"r 	c #FFBCBC",
"s 	c #FFBBBB",
"t 	c #FFB9B9",
"u 	c #FFB8B8",
"v 	c #FFB7B7",
"w 	c #FFB6B6",
"x 	c #FFB5B5",
"y 	c #FFB3B3",
"z 	c #FFB2B2",
"A 	c #FFB1B1",
"B 	c #FFB0B0",
"C 	c #FFAFAF",
"D 	c #FFADAD",
"E 	c #FFACAC",
"F 	c #FFABAB",
"G 	c #FFAAAA",
"H 	c #FFA8A8",
"I 	c #FFA7A7",
"J 	c #FFA6A6",
"K 	c #FFA5A5",
"L 	c #FFA4A4",
"M 	c #FFA2A2",
"N 	c #FFA1A1",
"O 	c #FFA0A0",
"P 	c #FF9F9F",
"Q 	c #FF9E9E",
"R 	c #FF9C9C",
"S 	c #FF9B9B",
"T 	c #FF9A9A",
"U 	c #FF9999",
"V 	c #FF9797",
"W 	c #FF9696",
"X 	c #FF9595",
"Y 	c #FF9494",
"Z 	c #FF9393",
"` 	c #FF9191",
" .	c #FF9090",
"..	c #FF8F8F",
"+.	c #FF8E8E",
"@.	c #FF8D8D",
"#.	c #FF8B8B",
"$.	c #FF8A8A",
"%.	c #FF8989",
"&.	c #FF8888",
"*.	c #FF8787",
"=.	c #FF8585",
"-.	c #FF8484",
";.	c #FF8383",
">.	c #FF8282",
",.	c #FF8080",
"'.	c #FF7F7F",
").	c #FF7E7E",
"!.	c #FF7D7D",
"~.	c #FF7B7B",
"{.	c #FF7A7A",
"].	c #FF7979",
"^.	c #FF7777",
"/.	c #FF7676",
"(.	c #FF7575",
"_.	c #FF7373",
":.	c #FF7272",
"<.	c #FF7171",
"[.	c #FF6F6F",
"}.	c #FF6E6E",
"|.	c #FF6D6D",
"1.	c #FF6C6C",
"2.	c #FF6A6A",
"3.	c #FF6969",
"4.	c #FF6868",
"5.	c #FF6666",
"6.	c #FF6565",
"7.	c #FF6464",
"8.	c #FF6262",
"9.	c #FF6161",
"0.	c #FF6060",
"a.	c #FF5E5E",
"b.	c #FF5D5D",
"c.	c #FF5C5C",
"d.	c #FF5A5A",
"e.	c #FF5959",
"f.	c #FF5858",
"g.	c #FF5656",
"h.	c #FF5555",
"i.	c #FF5454",
"j.	c #FF5252",
"k.	c #FF5151",
"l.	c #FF5050",
"m.	c #FF4F4F",
"n.	c #FF4D4D",
"o.	c #FF4C4C",
"p.	c #FF4B4B",
"q.	c #FF4949",
"r.	c #FF4848",
"s.	c #FF4747",
"t.	c #FF4545",
"u.	c #FF4444",
"v.	c #FF4343",
"w.	c #FF4141",
"x.	c #FF4040",
"y.	c #FF3F3F",
"z.	c #FF3D3D",
"A.	c #FF3C3C",
"B.	c #FF3B3B",
"C.	c #FF3939",
"D.	c #FF3838",
"E.	c #FF3737",
"F.	c #FF3636",
"G.	c #FF3434",
"H.	c #FF3333",
"I.	c #FF3232",
"J.	c #FF3030",
"K.	c #FF2F2F",
"L.	c #FF2E2E",
"M.	c #FF2C2C",
"N.	c #FF2B2B",
"O.	c #FF2A2A",
"P.	c #FF2828",
"Q.	c #FF2727",
"R.	c #FF2626",
"S.	c #FF2424",
"T.	c #FF2323",
"U.	c #FF2222",
"V.	c #FF2020",
"W.	c #FF1F1F",
"X.	c #FF1E1E",
"Y.	c #FF1C1C",
"Z.	c #FF1B1B",
"`.	c #FF1A1A",
" +	c #FF1919",
".+	c #FF1717",
"++	c #FF1616",
"@+	c #FF1515",
"#+	c #FF1313",
"$+	c #FF1212",
"%+	c #FF1111",
"&+	c #FF0F0F",
"*+	c #FF0E0E",
"=+	c #FF0D0D",
"-+	c #FF0B0B",
";+	c #FF0A0A",
">+	c #FF0909",
",+	c #FF0707",
"'+	c #FF0606",
")+	c #FF0505",
"!+	c #FF0303",
"~+	c #FF0202",
"{+	c #FF0101",
". . . . . + @ # $ % & * = - ; > , ' ) ! ~ { ] ^ / ( _ : < [ } | 1 2 3 4 5 6 7 8 9 0 a b c d e f g h i j k l m n o p q r s t u v w x y z A B C D E F G H I J K L M N O P Q R S T U V W X Y Z `  ...+.@.#.$.%.&.*.=.-.;.>.,.'.).!.~.{.].^./.(._.:.<.[.}.|.1.2.3.4.5.6.7.8.9.0.a.b.c.d.e.f.g.h.i.j.k.l.m.n.o.p.q.r.s.t.u.v.w.x.y.z.A.B.C.D.E.F.G.H.I.J.K.L.M.N.O.P.Q.R.S.T.U.V.W.X.Y.Z.`. +.+++@+#+$+%+&+*+=+-+;+>+,+'+)+!+~+{+. . . . "};
