/* XPM */
static const char * colorchooser_value_xpm[] = {
"210 1 204 2",
"  	c None",
". 	c #FFFFFF",
"+ 	c #000000",
"@ 	c #010000",
"# 	c #020000",
"$ 	c #030000",
"% 	c #040000",
"& 	c #060000",
"* 	c #070000",
"= 	c #080000",
"- 	c #090000",
"; 	c #0A0000",
"> 	c #0C0000",
", 	c #0D0000",
"' 	c #0E0000",
") 	c #0F0000",
"! 	c #100000",
"~ 	c #120000",
"{ 	c #130000",
"] 	c #140000",
"^ 	c #150000",
"/ 	c #170000",
"( 	c #180000",
"_ 	c #190000",
": 	c #1A0000",
"< 	c #1B0000",
"[ 	c #1D0000",
"} 	c #1E0000",
"| 	c #1F0000",
"1 	c #200000",
"2 	c #210000",
"3 	c #230000",
"4 	c #240000",
"5 	c #250000",
"6 	c #260000",
"7 	c #270000",
"8 	c #290000",
"9 	c #2A0000",
"0 	c #2B0000",
"a 	c #2C0000",
"b 	c #2E0000",
"c 	c #2F0000",
"d 	c #300000",
"e 	c #310000",
"f 	c #320000",
"g 	c #340000",
"h 	c #350000",
"i 	c #360000",
"j 	c #370000",
"k 	c #380000",
"l 	c #3A0000",
"m 	c #3B0000",
"n 	c #3C0000",
"o 	c #3D0000",
"p 	c #3F0000",
"q 	c #400000",
"r 	c #410000",
"s 	c #420000",
"t 	c #430000",
"u 	c #450000",
"v 	c #460000",
"w 	c #470000",
"x 	c #480000",
"y 	c #490000",
"z 	c #4B0000",
"A 	c #4C0000",
"B 	c #4D0000",
"C 	c #4E0000",
"D 	c #4F0000",
"E 	c #510000",
"F 	c #520000",
"G 	c #530000",
"H 	c #540000",
"I 	c #560000",
"J 	c #570000",
"K 	c #580000",
"L 	c #590000",
"M 	c #5A0000",
"N 	c #5C0000",
"O 	c #5D0000",
"P 	c #5E0000",
"Q 	c #5F0000",
"R 	c #600000",
"S 	c #620000",
"T 	c #630000",
"U 	c #640000",
"V 	c #650000",
"W 	c #670000",
"X 	c #680000",
"Y 	c #690000",
"Z 	c #6A0000",
"` 	c #6B0000",
" .	c #6D0000",
"..	c #6E0000",
"+.	c #6F0000",
"@.	c #700000",
"#.	c #710000",
"$.	c #730000",
"%.	c #740000",
"&.	c #750000",
"*.	c #760000",
"=.	c #770000",
"-.	c #790000",
";.	c #7A0000",
">.	c #7B0000",
",.	c #7C0000",
"'.	c #7E0000",
").	c #7F0000",
"!.	c #800000",
"~.	c #810000",
"{.	c #830000",
"].	c #840000",
"^.	c #850000",
"/.	c #870000",
"(.	c #880000",
"_.	c #890000",
":.	c #8B0000",
"<.	c #8C0000",
"[.	c #8D0000",
"}.	c #8F0000",
"|.	c #900000",
"1.	c #910000",
"2.	c #930000",
"3.	c #940000",
"4.	c #960000",
"5.	c #970000",
"6.	c #980000",
"7.	c #9A0000",
"8.	c #9B0000",
"9.	c #9C0000",
"0.	c #9E0000",
"a.	c #9F0000",
"b.	c #A00000",
"c.	c #A20000",
"d.	c #A30000",
"e.	c #A40000",
"f.	c #A60000",
"g.	c #A70000",
"h.	c #A80000",
"i.	c #AA0000",
"j.	c #AB0000",
"k.	c #AC0000",
"l.	c #AE0000",
"m.	c #AF0000",
"n.	c #B00000",
"o.	c #B20000",
"p.	c #B30000",
"q.	c #B40000",
"r.	c #B60000",
"s.	c #B70000",
"t.	c #B80000",
"u.	c #BA0000",
"v.	c #BB0000",
"w.	c #BC0000",
"x.	c #BE0000",
"y.	c #BF0000",
"z.	c #C00000",
"A.	c #C20000",
"B.	c #C30000",
"C.	c #C40000",
"D.	c #C60000",
"E.	c #C70000",
"F.	c #C80000",
"G.	c #C90000",
"H.	c #CB0000",
"I.	c #CC0000",
"J.	c #CD0000",
"K.	c #CF0000",
"L.	c #D00000",
"M.	c #D10000",
"N.	c #D20000",
"O.	c #D40000",
"P.	c #D50000",
"Q.	c #D60000",
"R.	c #D80000",
"S.	c #D90000",
"T.	c #DA0000",
"U.	c #DC0000",
"V.	c #DD0000",
"W.	c #DE0000",
"X.	c #DF0000",
"Y.	c #E10000",
"Z.	c #E20000",
"`.	c #E30000",
" +	c #E50000",
".+	c #E60000",
"++	c #E70000",
"@+	c #E80000",
"#+	c #EA0000",
"$+	c #EB0000",
"%+	c #EC0000",
"&+	c #EE0000",
"*+	c #EF0000",
"=+	c #F00000",
"-+	c #F20000",
";+	c #F30000",
">+	c #F40000",
",+	c #F50000",
"'+	c #F70000",
")+	c #F80000",
"!+	c #F90000",
"~+	c #FB0000",
"{+	c #FC0000",
"]+	c #FD0000",
". . . . + @ # $ % & * = - ; > , ' ) ! ~ { ] ^ / ( _ : < [ } | 1 2 3 4 5 6 7 8 9 0 a b c d e f g h i j k l m n o p q r s t u v w x y z A B C D E F G H I J K L M N O P Q R S T U V W X Y Z `  ...+.@.#.$.%.&.*.=.-.;.>.,.'.).!.~.{.].^./.(._.:.<.[.}.|.1.2.3.4.5.6.7.8.9.0.a.b.c.d.e.f.g.h.i.j.k.l.m.n.o.p.q.r.s.t.u.v.w.x.y.z.A.B.C.D.E.F.G.H.I.J.K.L.M.N.O.P.Q.R.S.T.U.V.W.X.Y.Z.`. +.+++@+#+$+%+&+*+=+-+;+>+,+'+)+!+~+{+]+. . . . "};
