/* XPM */
static const char * histogram_upper_xpm[] = {
"32 20 17 1",
" 	c None",
".	c #322BDB",
"+	c #3F38E8",
"@	c #1912C2",
"#	c #C9C9C9",
"$	c #86869B",
"%	c #545469",
"&	c #222277",
"*	c #000000",
"=	c #43436E",
"-	c #0000FF",
";	c #1111BB",
">	c #545454",
",	c #22224C",
"'	c #1111A6",
")	c #434358",
"!	c #0D06B6",
".++++++++++++++++++++++++++++++@",
"..++++++++++++++++++++++++++++@@",
"..############################@@",
"..############################@@",
"..##########$%################@@",
"..#########$&*################@@",
"..#######$=&-*################@@",
"..#####$=&;--*################@@",
"..###$=&;----*################@@",
"..##>,'------*################@@",
"..##>,'------*################@@",
"..###$=&;----*################@@",
"..#####$=&;--*################@@",
"..#######$=&-*################@@",
"..#########$&*################@@",
"..##########$)################@@",
"..############################@@",
"..############################@@",
"..!!!!!!!!!!!!!!!!!!!!!!!!!!!!!!",
".!!!!!!!!!!!!!!!!!!!!!!!!!!!!!!!"};
