/* XPM */
static const char * digitaxislarge_xpm[] = {
"32 26 4 1",
" 	c None",
".	c #FF0000",
"+	c #000200",
"@	c #000000",
"                                ",
"   ..                           ",
"   ..                           ",
" ......                         ",
" ......                         ",
"   ..                           ",
"   ..                           ",
"   ++                           ",
"   @@                           ",
"   @@                           ",
"   @@                           ",
"   @@                           ",
"   @@                           ",
"   @@                           ",
"   @@                           ",
"   @@                           ",
"   @@                           ",
"   @@                           ",
"   ++                           ",
"   ..                     ..    ",
"   ..                     ..    ",
" ......+@@@@@@@@@@@@@@@+......  ",
" ......++@@@@@@@@@@@@@@+......  ",
"   ..                     ..    ",
"   ..                     ..    ",
"                                "};
